<?xml version="1.0" encoding="UTF-8" standalone="no"?>
<svg
   width="80"
   height="19"
   viewBox="0 0 80 19"
   fill="none"
   version="1.1"
   id="svg834"
   sodipodi:docname="meta-tex-oxidot.svg"
   inkscape:version="1.1.1 (3bf5ae0d25, 2021-09-20)"
   xmlns:inkscape="http://www.inkscape.org/namespaces/inkscape"
   xmlns:sodipodi="http://sodipodi.sourceforge.net/DTD/sodipodi-0.dtd"
   xmlns="http://www.w3.org/2000/svg"
   xmlns:svg="http://www.w3.org/2000/svg">
  <defs
     id="defs838" />
  <sodipodi:namedview
     id="namedview836"
     pagecolor="#ffffff"
     bordercolor="#111111"
     borderopacity="1"
     inkscape:pageshadow="0"
     inkscape:pageopacity="0"
     inkscape:pagecheckerboard="1"
     showgrid="false"
     inkscape:zoom="21.1875"
     inkscape:cx="40"
     inkscape:cy="9.5103245"
     inkscape:window-width="1920"
     inkscape:window-height="1017"
     inkscape:window-x="-8"
     inkscape:window-y="-8"
     inkscape:window-maximized="1"
     inkscape:current-layer="svg834" />
  <path
     d="M 10.349183,17.641178 7.5150831,13.904221 4.6094065,17.641178 C 4.1895502,18.163352 3.8317104,18.535809 3.53589,18.758374 3.2496098,18.980952 2.8822309,19.092277 2.433745,19.092277 1.9375249,19.092277 1.512894,18.955309 1.1598288,18.68133 0.81629465,18.398849 0.644531,18.07777 0.644531,17.718209 c 0,-0.36819 0.26718818,-0.894622 0.8015625,-1.579501 L 4.9815646,11.592702 1.8468829,7.8044281 C 1.302956,7.1794758 1.0310004,6.6358369 1.0310004,6.1735461 1.0310004,5.8139737 1.1932215,5.5014996 1.51767,5.2361049 1.8421067,4.9707087 2.26675,4.838016 2.7915718,4.838016 c 0.458038,0 0.8349747,0.1155727 1.130779,0.3467184 0.3053584,0.2311467 0.6584364,0.5949966 1.0592138,1.0915463 L 7.5150831,9.3839551 9.9770353,6.2762807 C 10.387352,5.7626143 10.740432,5.3944815 11.036237,5.1718883 11.341597,4.9493054 11.718532,4.838016 12.166993,4.838016 c 0.515317,0 0.940003,0.1326915 1.273951,0.3980889 0.343455,0.2568269 0.515316,0.5693097 0.515316,0.9374412 0,0.2653859 -0.0716,0.5222262 -0.214711,0.7704963 -0.133643,0.2397055 -0.343591,0.526507 -0.629779,0.8603857 l -3.1347347,3.7882739 3.5354787,4.546006 c 0.553442,0.710532 0.830228,1.245625 0.830228,1.605159 0,0.368083 -0.171749,0.684873 -0.515332,0.950308 -0.343596,0.265392 -0.768166,0.398102 -1.273958,0.398102 -0.448507,0 -0.830158,-0.115658 -1.145059,-0.346715 -0.305354,-0.231238 -0.65842,-0.599307 -1.05921,-1.104384 z M 17.377248,5.146213 h 0.429347 V 3.0401782 c 0,-0.5650265 0.01417,-1.0059289 0.0429,-1.3226881 0.0382,-0.3253149 0.13351,-0.603555 0.286185,-0.83470705 0.152724,-0.23970845 0.372215,-0.43233629 0.658528,-0.5778705 0.286309,-0.15410794 0.605952,-0.23114673 0.959084,-0.23114673 0.49613,0 0.944636,0.16694149 1.345406,0.50082232 0.267232,0.2225876 0.434216,0.49654816 0.501025,0.82186486 0.07644,0.3167596 0.114506,0.7705073 0.114506,1.3612197 V 5.14622 h 1.431386 c 0.553436,0 0.973377,0.1198333 1.259659,0.3595618 0.295722,0.2311459 0.443645,0.5307919 0.443645,0.8989126 0,0.4708611 -0.209851,0.8004604 -0.629784,0.9888138 -0.410279,0.1883361 -1.00194,0.2825164 -1.774848,0.2825164 H 21.714181 V 14.12252 c 0,0.547911 0.0192,0.971669 0.0574,1.271372 0.04798,0.291038 0.162272,0.530678 0.343583,0.719072 0.190789,0.179801 0.496168,0.269683 0.916066,0.269683 0.229044,0 0.539158,-0.03421 0.930374,-0.10269 0.391242,-0.07726 0.696583,-0.115831 0.916087,-0.115831 0.314874,0 0.596401,0.115831 0.844477,0.346716 0.257618,0.222578 0.386471,0.500824 0.386471,0.834701 0,0.564997 -0.34358,0.997426 -1.030639,1.297018 -0.687057,0.299593 -1.674692,0.449501 -2.962836,0.449501 -1.221434,0 -2.147146,-0.184213 -2.776926,-0.552197 C 18.708429,18.171748 18.293389,17.662426 18.092932,17.011753 17.902029,16.361124 17.80664,15.492147 17.80664,14.40487 V 7.6759754 h -0.515326 c -0.562958,0 -0.992418,-0.1198361 -1.288122,-0.359559 C 15.707346,7.0766978 15.55942,6.7727803 15.55942,6.4046467 c 0,-0.3681192 0.152684,-0.6677595 0.458047,-0.8989112 0.314897,-0.2397086 0.768156,-0.3595624 1.359815,-0.3595624 z m 14.056006,8.886437 v 2.92792 c 0,0.710532 -0.186138,1.245628 -0.558326,1.605159 -0.37218,0.350999 -0.844509,0.526548 -1.416984,0.526548 -0.563081,0 -1.025883,-0.1799 -1.388404,-0.539364 C 27.706897,18.19338 27.525514,17.662546 27.525514,16.96057 V 7.2008754 c 0,-1.5752391 0.634668,-2.3628594 1.903714,-2.3628594 0.648952,0 1.116527,0.1840613 1.402836,0.5521838 0.286295,0.3681305 0.443741,0.9117556 0.472323,1.6308882 0.467546,-0.7191326 0.944649,-1.2627577 1.431389,-1.6308882 0.49615,-0.3681299 1.154624,-0.5521838 1.975305,-0.5521838 0.820541,0 1.617414,0.1840613 2.390317,0.5521838 0.772936,0.3681305 1.159396,0.856111 1.159396,1.4639503 0,0.4280517 -0.167014,0.7833343 -0.501022,1.0658536 -0.324434,0.273962 -0.677408,0.4109402 -1.059101,0.4109402 -0.14319,0 -0.49152,-0.077072 -1.044947,-0.2311484 -0.543893,-0.1626498 -1.02574,-0.2439921 -1.445668,-0.2439921 -0.572621,0 -1.040185,0.1369535 -1.402706,0.4109344 -0.362631,0.2653874 -0.644189,0.6634823 -0.844482,1.194273 -0.20046,0.5307792 -0.33884,1.1642902 -0.415173,1.9005672 -0.07647,0.727641 -0.114512,1.617978 -0.114512,2.67107 z m 19.137263,-1.207156 h -7.643491 c 0.0076,0.796233 0.18614,1.498212 0.529614,2.106061 0.353129,0.60786 0.81593,1.0659 1.388409,1.374054 0.582129,0.308157 1.221425,0.462306 1.91802,0.462306 0.467672,0 0.892255,-0.04727 1.273947,-0.141218 0.391212,-0.102777 0.768154,-0.256871 1.130801,-0.462333 0.362636,-0.214083 0.696574,-0.440849 1.001932,-0.680621 0.305372,-0.239755 0.701353,-0.565017 1.188097,-0.975924 0.200326,-0.154057 0.486628,-0.23128 0.858787,-0.23128 0.400755,0 0.725177,0.09867 0.973366,0.29542 0.248067,0.196984 0.372159,0.47517 0.372159,0.834705 0,0.316803 -0.138382,0.689161 -0.41516,1.117171 -0.276788,0.419496 -0.696582,0.826147 -1.259552,1.219994 -0.553539,0.385291 -1.254872,0.706255 -2.104162,0.963117 -0.839723,0.256867 -1.808318,0.385292 -2.905682,0.385292 -2.509633,0 -4.461022,-0.642154 -5.854275,-1.926237 -1.393189,-1.284201 -2.089756,-3.026431 -2.089756,-5.226624 0,-1.035895 0.171737,-1.9947147 0.515321,-2.8765146 0.343465,-0.8903469 0.844502,-1.6522845 1.502842,-2.2857998 0.658465,-0.6335269 1.469631,-1.1172219 2.433355,-1.451107 0.963829,-0.3424437 2.032564,-0.5136663 3.206246,-0.5136663 1.526784,0 2.834079,0.2910719 3.922007,0.8732265 1.097344,0.5735955 1.918021,1.3184128 2.461925,2.2344518 0.543904,0.9160403 0.815784,1.8492053 0.815784,2.7994214 0,0.881817 -0.281404,1.455469 -0.844503,1.720883 -0.562944,0.256756 -1.35491,0.385203 -2.376031,0.385206 z M 42.927026,10.83504 h 7.085296 C 49.916917,9.6365045 49.554289,8.7418768 48.924496,8.1511578 48.304256,7.5518845 47.483586,7.2522421 46.46247,7.2522421 c -0.973237,0 -1.774881,0.303916 -2.404621,0.9117523 -0.620253,0.599282 -0.997177,1.4896419 -1.130823,2.6710456 z m 27.167335,1.386876 v 4.661523 c 0,0.736263 -0.186025,1.288468 -0.558192,1.656665 -0.372172,0.368074 -0.863681,0.552173 -1.474418,0.552173 -0.591516,0 -1.073498,-0.184197 -1.445653,-0.552173 -0.362521,-0.368197 -0.543913,-0.920402 -0.543913,-1.656665 v -5.586074 c 0,-0.881795 -0.03339,-1.5666831 -0.100116,-2.0546659 -0.06692,-0.48798 -0.248073,-0.8860792 -0.543907,-1.1942803 -0.295821,-0.3167584 -0.76338,-0.4751376 -1.402684,-0.4751376 -1.278714,0 -2.123219,0.3938025 -2.533618,1.1814379 -0.400767,0.787608 -0.601064,1.9176979 -0.601064,3.3901579 v 4.738562 c 0,0.727717 -0.186176,1.279913 -0.558306,1.656665 -0.362659,0.368074 -0.844501,0.552173 -1.44571,0.552173 -0.591526,0 -1.078286,-0.184197 -1.459965,-0.552173 -0.372183,-0.376752 -0.558214,-0.928948 -0.558214,-1.656665 V 6.8541501 c 0,-0.6592015 0.167013,-1.1600236 0.500913,-1.5024687 0.343573,-0.3424426 0.792095,-0.5136654 1.34553,-0.5136654 0.53438,0 0.978131,0.1626438 1.331117,0.4879783 0.362645,0.3167588 0.544043,0.7576609 0.544043,1.3226922 v 0.3338816 c 0.677385,-0.7276986 1.402643,-1.2627664 2.175588,-1.6052117 0.772929,-0.3424425 1.63172,-0.5136654 2.576504,-0.5136654 0.982868,0 1.827376,0.1755103 2.533482,0.5265088 0.70611,0.351013 1.28824,0.8817944 1.74628,1.5923683 0.658348,-0.7191326 1.364589,-1.2499244 2.11845,-1.5923683 0.753859,-0.3510042 1.588698,-0.5265088 2.504796,-0.5265088 1.068719,0 1.989573,0.1883469 2.762625,0.5650391 0.772929,0.3766845 1.350167,0.9160404 1.731863,1.6180397 0.334068,0.6335298 0.501034,1.6308922 0.501034,2.9920582 v 6.844611 c 0,0.736263 -0.186145,1.288468 -0.558195,1.656665 -0.372187,0.368074 -0.863671,0.552173 -1.474386,0.552173 -0.591558,0 -1.078301,-0.184197 -1.459975,-0.552173 -0.372181,-0.376752 -0.558198,-0.928948 -0.558198,-1.656665 v -5.894321 c 0,-0.753378 -0.0383,-1.3568929 -0.114628,-1.8106294 C 75.008675,8.7247449 74.817893,8.3437833 74.503021,8.035575 74.188132,7.7273869 73.710916,7.5732812 73.071625,7.5732812 c -0.515333,0 -1.006715,0.1369536 -1.474271,0.4109329 -0.458042,0.2739621 -0.8159,0.6420885 -1.073523,1.1043823 -0.286301,0.5907146 -0.429454,1.6351146 -0.429454,3.1333196 z m 23.846503,0.603578 h -7.64348 c 0.0076,0.796233 0.186135,1.498212 0.529627,2.106061 0.353085,0.60786 0.815909,1.0659 1.38838,1.374054 0.582134,0.308157 1.221446,0.462306 1.918149,0.462306 0.46756,0 0.892127,-0.04727 1.273827,-0.141218 0.391229,-0.102777 0.768144,-0.256871 1.13081,-0.462333 0.362644,-0.214083 0.696587,-0.440849 1.001918,-0.680621 0.305379,-0.239755 0.701368,-0.565017 1.188104,-0.975924 0.200313,-0.154057 0.486615,-0.23128 0.858784,-0.23128 0.400758,0 0.725288,0.09867 0.973356,0.29542 0.248076,0.196984 0.372152,0.47517 0.372152,0.834705 0,0.316803 -0.138322,0.689161 -0.415139,1.117171 -0.276643,0.419496 -0.696581,0.826147 -1.259551,1.219994 -0.553557,0.385291 -1.254889,0.706255 -2.104171,0.963117 -0.839724,0.256867 -1.808303,0.385292 -2.905634,0.385292 -2.509686,0 -4.461053,-0.642154 -5.854328,-1.926237 -1.393156,-1.284202 -2.089752,-3.026436 -2.089752,-5.226626 0,-1.035893 0.171728,-1.9947156 0.515324,-2.8765154 0.343459,-0.8903499 0.844496,-1.6522846 1.502837,-2.2857999 0.658461,-0.6335298 1.469642,-1.1172252 2.433344,-1.4511105 0.963836,-0.3424446 2.032576,-0.513666 3.206262,-0.513666 1.526779,0 2.834082,0.2910716 3.922017,0.8732268 1.097333,0.573597 1.918001,1.3184129 2.461924,2.2344518 0.543897,0.9160302 0.815907,1.8492053 0.815907,2.7994212 0,0.881819 -0.281535,1.455475 -0.844502,1.720889 -0.563068,0.256756 -1.355061,0.385181 -2.376165,0.38518 z m -7.64348,-1.990454 h 7.085289 C 93.287281,9.6365045 92.924625,8.7418768 92.29486,8.1511578 91.674595,7.5518845 90.853946,7.2522421 89.832954,7.2522421 c -0.973375,0 -1.775015,0.303916 -2.404766,0.9117523 -0.620236,0.599282 -0.997167,1.4896419 -1.130804,2.6710456 z"
     fill="#ffffff"
     id="path832"
     style="fill:#d45500;fill-opacity:1;stroke-width:1.15696" />
</svg>
