<?xml version="1.0" encoding="UTF-8" standalone="no"?>
<!-- Created with Inkscape (http://www.inkscape.org/) -->

<svg
   width="188.00478"
   height="49.151215"
   viewBox="0 0 49.742929 13.004593"
   version="1.1"
   id="svg35493"
   inkscape:version="1.1.1 (3bf5ae0d25, 2021-09-20)"
   sodipodi:docname="metaRestaurante.svg"
   xmlns:inkscape="http://www.inkscape.org/namespaces/inkscape"
   xmlns:sodipodi="http://sodipodi.sourceforge.net/DTD/sodipodi-0.dtd"
   xmlns="http://www.w3.org/2000/svg"
   xmlns:svg="http://www.w3.org/2000/svg">
  <sodipodi:namedview
     id="namedview35495"
     pagecolor="#ffffff"
     bordercolor="#999999"
     borderopacity="1"
     inkscape:pageshadow="0"
     inkscape:pageopacity="0"
     inkscape:pagecheckerboard="0"
     inkscape:document-units="px"
     showgrid="false"
     objecttolerance="10000"
     units="px"
     fit-margin-top="0"
     fit-margin-left="0"
     fit-margin-right="0"
     fit-margin-bottom="0"
     inkscape:zoom="1.5287037"
     inkscape:cx="-74.900061"
     inkscape:cy="17.334949"
     inkscape:window-width="1920"
     inkscape:window-height="1017"
     inkscape:window-x="-8"
     inkscape:window-y="-8"
     inkscape:window-maximized="1"
     inkscape:current-layer="layer1" />
  <defs
     id="defs35490" />
  <g
     inkscape:label="Capa 1"
     inkscape:groupmode="layer"
     id="layer1"
     transform="translate(-69.211478,-61.029021)">
    <g
       aria-label="metaRestaurante"
       transform="matrix(0.61994078,0,0,1.6130573,18.692308,2.5961538)"
       id="text42847"
       style="font-size:8.22338px;line-height:101.324px;font-family:'Snap ITC';-inkscape-font-specification:'Snap ITC';fill:#d45500;stroke-width:0.264583">
      <path
         d="m 88.05136,43.68871 -2.047815,0.156598 q 0.313196,-0.325241 0.465778,-0.638436 0.152582,-0.313196 0.152582,-0.630406 0,-0.30918 -0.136521,-0.4979 -0.136521,-0.192735 -0.357364,-0.192735 -0.252965,0 -0.449716,0.252965 -0.192735,0.252965 -0.192735,0.594268 0,0.18872 0.0522,0.349333 0.05621,0.156597 0.168644,0.309179 l -1.569991,-0.08834 q 0.112429,-0.144551 0.168643,-0.285088 0.05621,-0.140536 0.05621,-0.285087 0,-0.321226 -0.148567,-0.530023 -0.148567,-0.208797 -0.36941,-0.208797 -0.240919,0 -0.417594,0.244935 -0.176674,0.240919 -0.176674,0.586237 0,0.252965 0.09235,0.465777 0.09235,0.212812 0.285088,0.413579 l -2.136152,0.140536 0.674574,-0.526007 -0.08432,-3.429086 -0.56616,-0.240919 1.81091,-0.18872 -0.224858,0.939585 q 0.277058,-0.449716 0.622375,-0.690635 0.345318,-0.24092 0.702682,-0.24092 0.341302,0 0.614344,0.293119 0.273042,0.293119 0.365394,0.766927 0.228874,-0.521992 0.562145,-0.791019 0.337288,-0.269027 0.758896,-0.269027 0.55813,0 0.931555,0.521992 0.37744,0.521992 0.37744,1.313011 0,0.538053 -0.176674,1.047999 -0.172659,0.509946 -0.538053,1.039968 z"
         id="path78655" />
      <path
         d="m 89.436646,40.95026 q 0.12849,0.104399 0.301149,0.164629 0.172659,0.05621 0.353348,0.05621 0.317211,0 0.517977,-0.184705 0.200766,-0.184704 0.200766,-0.473808 0,-0.140536 -0.04015,-0.252965 -0.04015,-0.112429 -0.124475,-0.212812 -0.42964,0.06424 -0.734804,0.293118 -0.301149,0.224858 -0.473808,0.610329 z m 3.995246,2.862925 -0.361379,-0.666543 q -0.534038,0.337287 -1.068076,0.501915 -0.534038,0.164628 -1.104214,0.164628 -1.112244,0 -1.782803,-0.550099 -0.666543,-0.554114 -0.666543,-1.465593 0,-0.481838 0.180689,-0.927539 0.184705,-0.449716 0.517977,-0.782988 0.321225,-0.321226 0.742834,-0.485854 0.425624,-0.164628 0.93557,-0.164628 0.975724,0 1.610145,0.421609 0.634421,0.421609 0.634421,1.060045 0,0.642451 -0.586237,1.076106 -0.582222,0.433655 -1.461578,0.433655 -0.216827,0 -0.405547,-0.03212 -0.188721,-0.03614 -0.361379,-0.104398 0.37744,0.256981 0.738819,0.381456 0.365394,0.120459 0.750865,0.120459 0.469793,0 0.863294,-0.208796 0.393502,-0.208797 0.674575,-0.606314 z"
         id="path78657" />
      <path
         d="m 98.487182,43.837277 -0.598283,-0.674574 q -0.43767,0.341302 -0.883371,0.509946 -0.445701,0.164628 -0.93557,0.164628 -0.762911,0 -1.220658,-0.441685 -0.457747,-0.441686 -0.457747,-1.180505 0,-0.220843 0.03614,-0.526007 0.04015,-0.305165 0.12849,-0.787003 l -0.465777,0.05621 -0.42964,0.730789 -0.148567,-2.449347 0.5501,0.550099 0.766926,-0.02409 q 0.108414,-0.397517 0.224858,-0.766926 0.12046,-0.373425 0.252966,-0.722758 l -1.027923,-0.393502 3.517422,-0.156597 -0.9958,0.62639 q -0.08031,0.36941 -0.148566,0.698666 -0.06425,0.329256 -0.11243,0.638436 l 0.919509,-0.04015 0.626391,-0.770942 -0.100383,2.268657 -0.566161,-0.658513 -1.003831,0.140537 q -0.04015,0.325241 -0.06023,0.590252 -0.02008,0.265011 -0.02008,0.461762 0,0.445701 0.140536,0.642452 0.140537,0.19675 0.457747,0.19675 0.305165,0 0.630406,-0.180689 0.325241,-0.18069 0.630405,-0.517977 z"
         id="path78659" />
      <path
         d="m 100.92047,40.424253 c -0.0696,0.08031 -0.12046,0.165967 -0.15258,0.256981 -0.0321,0.09101 -0.0482,0.196751 -0.0482,0.31721 0,0.235566 0.0763,0.433655 0.22888,0.594268 0.15525,0.157936 0.34531,0.236904 0.57017,0.236904 0.0803,0 0.16329,-0.01606 0.24895,-0.04818 0.0857,-0.0348 0.17266,-0.08432 0.261,-0.148567 -0.17132,-0.315872 -0.35067,-0.574191 -0.53806,-0.774957 -0.1847,-0.203443 -0.37476,-0.347994 -0.57017,-0.433655 z m 2.81072,-0.839202 -0.59025,0.269026 0.12046,3.364841 58.46711,0.594267 -59.77209,-0.02008 0.30115,-1.224674 c -0.24627,0.404209 -0.53136,0.709374 -0.85526,0.915494 -0.32123,0.20612 -0.6719,0.30918 -1.05202,0.30918 -0.455068,0 -0.8392,-0.186043 -1.152395,-0.55813 -0.310518,-0.374763 -0.465777,-0.837864 -0.465777,-1.389302 0,-0.704019 0.167305,-1.282226 0.501915,-1.734619 0.33461,-0.45507 0.756219,-0.682605 1.264827,-0.682605 0.38547,0 0.7241,0.101722 1.01588,0.305165 0.29445,0.200766 0.54206,0.501915 0.74283,0.903447 l -0.25296,-1.240734 z"
         id="path78661"
         sodipodi:nodetypes="ssscscccsscccccccscscscccc" />
      <path
         d="m 106.22872,39.666471 c 0.0883,0.06021 0.18069,0.108703 0.27706,0.14549 0.0964,0.03344 0.1847,0.05016 0.26501,0.05016 0.11243,0 0.21148,-0.0786 0.29714,-0.235792 0.0883,-0.157195 0.1325,-0.336129 0.1325,-0.536804 0,-0.247497 -0.0656,-0.464894 -0.19675,-0.652191 -0.13117,-0.187296 -0.33729,-0.356197 -0.61836,-0.506702 z m 4.23617,3.491732 -2.69027,1.128791 0.32123,-0.757544 -1.52181,-2.31277 c -0.0615,-0.0067 -0.12578,-0.0167 -0.19273,-0.0301 -0.0643,-0.01673 -0.13119,-0.03345 -0.20077,-0.05016 l 0.11644,1.786001 0.90345,0.998354 -3.39696,-0.476602 0.56616,-0.501685 0.58624,-5.488439 -22.765941,-0.472714 24.580861,-0.656078 c 0.23557,-0.03679 0.43767,-0.06188 0.60632,-0.07525 0.16864,-0.01673 0.31854,-0.02509 0.44971,-0.02509 0.81377,0 1.4308,0.209036 1.85107,0.627107 0.42027,0.414727 0.6304,1.026783 0.6304,1.836169 0,0.672258 -0.17935,1.220767 -0.53805,1.645527 -0.35871,0.421417 -0.89141,0.712394 -1.5981,0.872933 z"
         id="path78663"
         style="stroke-width:0.264583"
         sodipodi:nodetypes="ccscssccccccccccccccccscsccc" />
      <path
         d="m 111.5932,40.95026 q 0.12849,0.104399 0.30114,0.164629 0.17266,0.05621 0.35335,0.05621 0.31721,0 0.51798,-0.184705 0.20077,-0.184704 0.20077,-0.473808 0,-0.140536 -0.0402,-0.252965 -0.0402,-0.112429 -0.12447,-0.212812 -0.42964,0.06424 -0.73481,0.293118 -0.30115,0.224858 -0.4738,0.610329 z m 3.99524,2.862925 -0.36138,-0.666543 q -0.53404,0.337287 -1.06807,0.501915 -0.53404,0.164628 -1.10422,0.164628 -1.11224,0 -1.7828,-0.550099 -0.66654,-0.554114 -0.66654,-1.465593 0,-0.481838 0.18069,-0.927539 0.1847,-0.449716 0.51797,-0.782988 0.32123,-0.321226 0.74284,-0.485854 0.42562,-0.164628 0.93557,-0.164628 0.97572,0 1.61014,0.421609 0.63442,0.421609 0.63442,1.060045 0,0.642451 -0.58623,1.076106 -0.58223,0.433655 -1.46158,0.433655 -0.21683,0 -0.40555,-0.03212 -0.18872,-0.03614 -0.36138,-0.104398 0.37744,0.256981 0.73882,0.381456 0.3654,0.120459 0.75087,0.120459 0.46979,0 0.86329,-0.208796 0.3935,-0.208797 0.67457,-0.606314 z"
         id="path78665" />
      <path
         d="m 120.13379,39.436484 -0.76291,1.453547 q -0.3132,-0.281073 -0.59829,-0.413579 -0.28107,-0.136521 -0.55411,-0.136521 -0.24895,0 -0.38949,0.112429 -0.13652,0.112429 -0.13652,0.30918 0,0.357364 1.08815,0.42964 0.10842,0.008 0.16865,0.01205 0.88738,0.06023 1.2849,0.325241 0.40153,0.265011 0.40153,0.795034 0,0.658513 -0.65048,1.076106 -0.64647,0.413578 -1.7025,0.413578 -0.47782,0 -0.96769,-0.148567 -0.48585,-0.148567 -1.01989,-0.453731 l -0.66654,0.590252 0.51797,-1.618175 q 0.3935,0.349333 0.7589,0.530023 0.36941,0.176674 0.67859,0.176674 0.25698,0 0.40956,-0.132506 0.15258,-0.13652 0.15258,-0.369409 0,-0.24092 -0.16061,-0.353349 -0.16061,-0.116444 -0.77094,-0.212812 -0.68261,-0.112429 -0.98376,-0.353348 -0.29713,-0.240919 -0.29713,-0.674574 0,-0.634421 0.51798,-1.007846 0.52199,-0.373425 1.40536,-0.373425 0.4979,0 0.85526,0.12046 0.35737,0.120459 0.66655,0.389486 z"
         id="path78667" />
      <path
         d="m 125.68296,43.837277 -0.59828,-0.674574 q -0.43767,0.341302 -0.88337,0.509946 -0.4457,0.164628 -0.93557,0.164628 -0.76291,0 -1.22066,-0.441685 -0.45775,-0.441686 -0.45775,-1.180505 0,-0.220843 0.0361,-0.526007 0.0401,-0.305165 0.12849,-0.787003 l -0.46578,0.05621 -0.42964,0.730789 -0.14856,-2.449347 0.5501,0.550099 0.76692,-0.02409 q 0.10842,-0.397517 0.22486,-0.766926 0.12046,-0.373425 0.25297,-0.722758 l -1.02793,-0.393502 3.51743,-0.156597 -0.9958,0.62639 q -0.0803,0.36941 -0.14857,0.698666 -0.0643,0.329256 -0.11243,0.638436 l 0.91951,-0.04015 0.62639,-0.770942 -0.10038,2.268657 -0.56617,-0.658513 -1.00383,0.140537 q -0.0402,0.325241 -0.0602,0.590252 -0.0201,0.265011 -0.0201,0.461762 0,0.445701 0.14053,0.642452 0.14054,0.19675 0.45775,0.19675 0.30517,0 0.63041,-0.180689 0.32524,-0.18069 0.6304,-0.517977 z"
         id="path78669" />
      <path
         d="m 128.11624,40.424253 q -0.10439,0.12046 -0.15258,0.256981 -0.0482,0.136521 -0.0482,0.31721 0,0.353349 0.22887,0.594268 0.23289,0.236904 0.57018,0.236904 0.12046,0 0.24895,-0.04818 0.12849,-0.0522 0.26099,-0.148567 -0.25698,-0.473808 -0.53805,-0.774957 -0.27706,-0.305164 -0.57018,-0.433655 z m 2.81073,-0.839202 -0.59025,0.269026 0.12046,3.364841 0.46176,0.353348 -1.76674,0.220843 0.30115,-1.224674 q -0.36941,0.606314 -0.85527,0.915494 -0.48184,0.30918 -1.05201,0.30918 -0.68261,0 -1.1524,-0.55813 -0.46578,-0.562145 -0.46578,-1.389302 0,-1.056029 0.50192,-1.734619 0.50191,-0.682605 1.26483,-0.682605 0.5782,0 1.01587,0.305165 0.44169,0.301149 0.74284,0.903447 l -0.25297,-1.240734 z"
         id="path78671" />
      <path
         d="m 136.19507,39.452545 -0.99981,0.542069 q 0.4979,0.381455 0.7348,0.803064 0.24092,0.417594 0.24092,0.915494 0,0.37744 -0.14455,0.714727 -0.14054,0.337287 -0.41358,0.602298 -0.3935,0.389487 -0.9436,0.598283 -0.5501,0.208797 -1.18452,0.208797 -0.99981,0 -1.64227,-0.534038 -0.63843,-0.538053 -0.63843,-1.357179 0,-0.550099 0.24092,-1.052014 0.24493,-0.505931 0.73882,-0.979739 l -1.00383,-0.196751 2.32888,-0.265011 q -0.26099,0.293119 -0.39751,0.602299 -0.13652,0.305164 -0.13652,0.598283 0,0.349333 0.16061,0.546083 0.16061,0.192736 0.4457,0.192736 0.33327,0 0.54608,-0.228873 0.21281,-0.232889 0.21281,-0.598284 0,-0.228873 -0.0843,-0.421608 -0.0843,-0.192736 -0.26099,-0.377441 z"
         id="path78673" />
      <path
         d="m 141.38688,39.484668 -0.63442,2.549729 q -0.28107,-0.345317 -0.61033,-0.513961 -0.32925,-0.168643 -0.71874,-0.168643 -0.4979,0 -0.81912,0.325241 -0.31721,0.321226 -0.31721,0.819126 0,0.313195 0.14856,0.590252 0.14857,0.273042 0.48586,0.578206 l -2.57382,0.136521 0.45774,-0.37744 0.22486,-3.549545 -0.63442,-0.265011 2.03175,-0.108414 -0.33729,0.915494 q 0.45374,-0.473808 0.8633,-0.702682 0.41358,-0.228873 0.81511,-0.228873 0.32524,0 0.59828,0.136521 0.27304,0.132505 0.46176,0.381455 z"
         id="path78675" />
      <path
         d="m 143.51099,40.424253 q -0.1044,0.12046 -0.15258,0.256981 -0.0482,0.136521 -0.0482,0.31721 0,0.353349 0.22887,0.594268 0.23289,0.236904 0.57018,0.236904 0.12046,0 0.24895,-0.04818 0.12849,-0.0522 0.26099,-0.148567 -0.25698,-0.473808 -0.53805,-0.774957 -0.27706,-0.305164 -0.57018,-0.433655 z m 2.81073,-0.839202 -0.59025,0.269026 0.12046,3.364841 0.46176,0.353348 -1.76674,0.220843 0.30115,-1.224674 q -0.36941,0.606314 -0.85527,0.915494 -0.48184,0.30918 -1.05201,0.30918 -0.68261,0 -1.1524,-0.55813 -0.46578,-0.562145 -0.46578,-1.389302 0,-1.056029 0.50192,-1.734619 0.50191,-0.682605 1.26482,-0.682605 0.57821,0 1.01588,0.305165 0.44169,0.301149 0.74284,0.903447 l -0.25297,-1.240734 z"
         id="path78677" />
      <path
         d="m 151.3208,43.648557 -2.24457,0.144552 q 0.22486,-0.252966 0.33729,-0.517977 0.11243,-0.269027 0.11243,-0.542068 0,-0.365395 -0.17266,-0.602299 -0.17266,-0.236904 -0.43366,-0.236904 -0.30115,0 -0.50191,0.24895 -0.19675,0.244935 -0.19675,0.622375 0,0.256981 0.0803,0.465778 0.0803,0.204781 0.24092,0.357363 l -2.20441,0.256981 0.50192,-0.526007 0.17266,-3.300595 -0.65852,-0.329257 2.096,-0.228873 -0.48585,0.979738 q 0.50593,-0.481838 0.98375,-0.726773 0.47782,-0.244935 0.90746,-0.244935 0.66655,0 1.06406,0.441686 0.40154,0.43767 0.40154,1.172474 0,0.578206 -0.20479,1.156413 -0.20478,0.574191 -0.60229,1.120275 z"
         id="path78679" />
      <path
         d="m 156.54071,43.837277 -0.59828,-0.674574 q -0.43767,0.341302 -0.88337,0.509946 -0.4457,0.164628 -0.93557,0.164628 -0.76291,0 -1.22066,-0.441685 -0.45774,-0.441686 -0.45774,-1.180505 0,-0.220843 0.0361,-0.526007 0.0402,-0.305165 0.12849,-0.787003 l -0.46577,0.05621 -0.42964,0.730789 -0.14857,-2.449347 0.5501,0.550099 0.76693,-0.02409 q 0.10841,-0.397517 0.22485,-0.766926 0.12046,-0.373425 0.25297,-0.722758 l -1.02792,-0.393502 3.51742,-0.156597 -0.9958,0.62639 q -0.0803,0.36941 -0.14857,0.698666 -0.0642,0.329256 -0.11243,0.638436 l 0.91951,-0.04015 0.62639,-0.770942 -0.10038,2.268657 -0.56616,-0.658513 -1.00383,0.140537 q -0.0402,0.325241 -0.0602,0.590252 -0.0201,0.265011 -0.0201,0.461762 0,0.445701 0.14054,0.642452 0.14053,0.19675 0.45774,0.19675 0.30517,0 0.63041,-0.180689 0.32524,-0.18069 0.63041,-0.517977 z"
         id="path78681" />
      <path
         d="m 157.73326,40.95026 q 0.12849,0.104399 0.30115,0.164629 0.17266,0.05621 0.35335,0.05621 0.31721,0 0.51797,-0.184705 0.20077,-0.184704 0.20077,-0.473808 0,-0.140536 -0.0402,-0.252965 -0.0402,-0.112429 -0.12448,-0.212812 -0.42964,0.06424 -0.7348,0.293118 -0.30115,0.224858 -0.47381,0.610329 z m 3.99525,2.862925 -0.36138,-0.666543 q -0.53404,0.337287 -1.06808,0.501915 -0.53404,0.164628 -1.10421,0.164628 -1.11225,0 -1.78281,-0.550099 -0.66654,-0.554114 -0.66654,-1.465593 0,-0.481838 0.18069,-0.927539 0.18471,-0.449716 0.51798,-0.782988 0.32122,-0.321226 0.74283,-0.485854 0.42563,-0.164628 0.93557,-0.164628 0.97572,0 1.61015,0.421609 0.63442,0.421609 0.63442,1.060045 0,0.642451 -0.58624,1.076106 -0.58222,0.433655 -1.46158,0.433655 -0.21683,0 -0.40555,-0.03212 -0.18872,-0.03614 -0.36137,-0.104398 0.37744,0.256981 0.73882,0.381456 0.36539,0.120459 0.75086,0.120459 0.46979,0 0.86329,-0.208796 0.39351,-0.208797 0.67458,-0.606314 z"
         id="path78683" />
    </g>
  </g>
</svg>
