<?xml version="1.0" encoding="UTF-8" standalone="no"?>
<svg
   width="80"
   height="19"
   viewBox="0 0 80 19"
   fill="none"
   version="1.1"
   id="svg834"
   sodipodi:docname="xtreme-white-text.svg"
   inkscape:version="1.1.1 (3bf5ae0d25, 2021-09-20)"
   xmlns:inkscape="http://www.inkscape.org/namespaces/inkscape"
   xmlns:sodipodi="http://sodipodi.sourceforge.net/DTD/sodipodi-0.dtd"
   xmlns="http://www.w3.org/2000/svg"
   xmlns:svg="http://www.w3.org/2000/svg">
  <defs
     id="defs838" />
  <sodipodi:namedview
     id="namedview836"
     pagecolor="#ffffff"
     bordercolor="#111111"
     borderopacity="1"
     inkscape:pageshadow="0"
     inkscape:pageopacity="0"
     inkscape:pagecheckerboard="1"
     showgrid="false"
     inkscape:zoom="21.1875"
     inkscape:cx="40"
     inkscape:cy="9.5103245"
     inkscape:window-width="1920"
     inkscape:window-height="1017"
     inkscape:window-x="-8"
     inkscape:window-y="-8"
     inkscape:window-maximized="1"
     inkscape:current-layer="svg834" />
  <path
     d="M 8.5896104,12.731306 6.2693676,11.286072 3.8905256,12.731306 C 3.5467957,12.933247 3.2538348,13.077296 3.011651,13.163368 2.7772768,13.249444 2.4765071,13.2925 2.1093383,13.2925 1.7030887,13.2925 1.3554491,13.239522 1.0663978,13.133572 0.78515185,13.02432 0.644531,12.900149 0.644531,12.761099 c 0,-0.142396 0.21874372,-0.345988 0.6562292,-0.61086 L 4.1952074,10.392112 1.6288821,8.9270384 C 1.1835754,8.6853428 0.96092881,8.4750964 0.96092881,8.296309 c 0,-0.1390609 0.13280799,-0.2599072 0.39843129,-0.3625463 0.2656107,-0.1026395 0.6132615,-0.1539573 1.0429275,-0.1539573 0.3749892,0 0.6835826,0.044696 0.9257553,0.1340898 0.2499918,0.089396 0.5390534,0.2301092 0.8671645,0.4221449 l 2.0741602,1.201861 2.0155701,-1.201861 C 8.6208593,8.1373847 8.9099208,7.9950139 9.152094,7.9089279 9.4020865,7.8228461 9.7106781,7.7798054 10.077827,7.7798054 c 0.421888,0 0.769575,0.051317 1.042974,0.1539573 0.281187,0.099325 0.42188,0.2201755 0.42188,0.3625463 0,0.1026353 -0.05863,0.2019652 -0.175787,0.2979807 -0.109405,0.092706 -0.281292,0.2036222 -0.515586,0.3327487 l -2.5663703,1.4650736 2.8944583,1.758127 c 0.453086,0.274791 0.679686,0.481729 0.679686,0.620778 0,0.142352 -0.140606,0.264872 -0.42189,0.367519 -0.281297,0.102641 -0.628886,0.153964 -1.042974,0.153964 -0.367189,0 -0.6796399,-0.04471 -0.9374424,-0.134091 C 9.206782,13.068988 8.9177305,12.926635 8.5896104,12.731306 Z M 14.343397,7.8989982 h 0.351505 V 7.0845098 c 0,-0.2185184 0.01162,-0.3890336 0.03513,-0.5115367 0.0312,-0.1258126 0.109308,-0.2334191 0.2343,-0.322815 0.12503,-0.092706 0.304725,-0.1672013 0.539123,-0.2234855 0.2344,-0.059599 0.496095,-0.089396 0.785196,-0.089396 0.406175,0 0.77337,0.064561 1.101466,0.1936882 0.218782,0.086086 0.355489,0.1920355 0.410183,0.3178483 0.0625,0.1225033 0.0937,0.2979852 0.0937,0.5264378 v 0.9237474 h 1.171859 c 0.453094,0 0.796885,0.046349 1.031264,0.1390569 0.242099,0.089396 0.3632,0.2052787 0.3632,0.3476454 0,0.1821015 -0.171798,0.3095719 -0.515591,0.3824137 -0.335881,0.072838 -0.820267,0.1092598 -1.45304,0.1092598 h -0.59769 v 2.4931179 c 0,0.211902 0.0157,0.375783 0.0469,0.491692 0.03923,0.112561 0.132856,0.205242 0.281292,0.278095 0.156195,0.06954 0.406204,0.104297 0.749971,0.104297 0.18751,0 0.441401,-0.01322 0.761684,-0.03971 0.320301,-0.02985 0.570285,-0.04474 0.749983,-0.04474 0.257789,0 0.488276,0.04474 0.691369,0.13409 0.210909,0.08608 0.316392,0.193684 0.316392,0.32281 0,0.218504 -0.281281,0.385743 -0.84376,0.501606 -0.562483,0.115868 -1.371054,0.173838 -2.425639,0.173838 -0.999976,0 -1.757851,-0.0712 -2.273439,-0.213553 C 15.433183,12.936526 15.093395,12.73955 14.929287,12.487904 14.773,12.236279 14.694902,11.900212 14.694902,11.479717 V 8.877374 h -0.421886 c -0.460891,0 -0.812482,-0.046354 -1.054572,-0.1390567 -0.242196,-0.09271 -0.363297,-0.2102459 -0.363297,-0.3526168 0,-0.1423667 0.124996,-0.2582497 0.374992,-0.3476454 0.257791,-0.092706 0.628876,-0.1390569 1.113263,-0.1390569 z M 25.850875,11.33574 v 1.132345 c 0,0.274791 -0.152394,0.481731 -0.457089,0.620779 -0.3047,0.135742 -0.691387,0.203636 -1.160062,0.203636 -0.460998,0 -0.839882,-0.06955 -1.136672,-0.208593 -0.2969,-0.139049 -0.445384,-0.344339 -0.445384,-0.615822 V 8.6936194 c 0,-0.6092094 0.519588,-0.913814 1.558545,-0.913814 0.531284,0 0.91408,0.071181 1.148477,0.2135518 0.234383,0.1423707 0.363286,0.3526125 0.386687,0.6307298 0.382779,-0.2781173 0.773377,-0.4883591 1.171862,-0.6307298 0.406196,-0.1423707 0.945277,-0.2135518 1.617154,-0.2135518 0.671782,0 1.324163,0.071181 1.956938,0.2135518 0.632781,0.1423707 0.949174,0.3310921 0.949174,0.5661686 0,0.1655439 -0.136733,0.3029474 -0.41018,0.4122106 -0.265603,0.10595 -0.554593,0.1589242 -0.867073,0.1589242 -0.11724,0 -0.402396,-0.0298 -0.855488,-0.089396 -0.445275,-0.062909 -0.839762,-0.094363 -1.183554,-0.094363 -0.468805,0 -0.851574,0.052972 -1.148365,0.1589243 -0.296896,0.1026395 -0.527391,0.2565965 -0.691385,0.461876 -0.164105,0.2052747 -0.27739,0.4502821 -0.339886,0.7350281 -0.0625,0.281405 -0.0937,0.625741 -0.0937,1.033009 z M 41.51832,10.868886 h -6.257626 c 0.007,0.307931 0.152392,0.579416 0.433597,0.814495 0.28908,0.235081 0.667983,0.412229 1.136662,0.531402 0.476582,0.119172 0.999974,0.178796 1.570257,0.178796 0.382881,0 0.730477,-0.01824 1.042971,-0.05463 0.320288,-0.03977 0.628874,-0.09934 0.925772,-0.178802 0.296894,-0.08277 0.570283,-0.170494 0.820267,-0.263223 0.250003,-0.09272 0.574193,-0.218511 0.972682,-0.377432 0.163995,-0.05958 0.398391,-0.08942 0.703078,-0.08942 0.328093,0 0.593683,0.03812 0.79688,0.114256 0.203093,0.07616 0.304678,0.183761 0.304678,0.32281 0,0.122519 -0.113289,0.266527 -0.339879,0.43206 -0.226602,0.162229 -0.570284,0.319501 -1.03118,0.471815 -0.453179,0.149007 -1.027358,0.273139 -1.72265,0.372477 -0.687476,0.09934 -1.480448,0.149006 -2.37884,0.149006 -2.054617,0 -3.652186,-0.248344 -4.792843,-0.74495 -1.140568,-0.496653 -1.710851,-1.170446 -1.710851,-2.021348 0,-0.400617 0.140601,-0.7714348 0.421892,-1.1124605 0.281185,-0.344335 0.69138,-0.6390063 1.230352,-0.8840123 0.539081,-0.2450096 1.203174,-0.4320741 1.992151,-0.5612007 0.789081,-0.1324369 1.664044,-0.1986556 2.624923,-0.1986556 1.249957,0 2.320233,0.1125691 3.210901,0.3377118 0.898385,0.2218328 1.570258,0.5098838 2.015552,0.8641536 0.445286,0.3542652 0.667873,0.7151587 0.667873,1.0826517 0,0.341028 -0.230387,0.562886 -0.691387,0.665529 -0.460876,0.0993 -1.109252,0.148975 -1.945232,0.148975 z m -6.257626,-0.769787 h 5.800642 C 40.983236,9.6355737 40.686344,9.2895847 40.170752,9.0611286 39.662965,8.8293662 38.991092,8.7134828 38.155117,8.7134828 c -0.796777,0 -1.453073,0.1175363 -1.96864,0.3526125 -0.507786,0.2317666 -0.816375,0.5761022 -0.925783,1.0330037 z m 22.241571,0.536358 v 1.802794 c 0,0.284749 -0.152307,0.498303 -0.456993,0.640699 -0.304692,0.142352 -0.707091,0.21355 -1.207085,0.21355 -0.484267,0 -0.878865,-0.0712 -1.183545,-0.21355 C 54.357851,12.936554 54.209353,12.723 54.209353,12.438251 V 10.2779 c 0,-0.3410323 -0.02737,-0.6059049 -0.08197,-0.7946267 -0.05474,-0.1887212 -0.203124,-0.3426832 -0.44531,-0.461876 -0.242196,-0.1225026 -0.624982,-0.1837545 -1.148368,-0.1837545 -1.046869,0 -1.738251,0.1523004 -2.074241,0.4569093 -0.328108,0.3046004 -0.492083,0.7416549 -0.492083,1.3111109 v 1.832588 c 0,0.281442 -0.152412,0.494996 -0.457088,0.640699 -0.296895,0.142352 -0.691383,0.21355 -1.183569,0.21355 -0.484281,0 -0.88279,-0.0712 -1.195262,-0.21355 -0.304694,-0.145703 -0.456986,-0.359257 -0.456986,-0.640699 V 8.5595258 c 0,-0.25494 0.136736,-0.4486282 0.41009,-0.5810653 0.281274,-0.1324365 0.648473,-0.1986551 1.101566,-0.1986551 0.437486,0 0.800776,0.062904 1.089764,0.1887213 0.296896,0.1225031 0.445396,0.2930179 0.445396,0.5115369 v 0.1291265 c 0.554578,-0.2814309 1.148346,-0.4883628 1.781149,-0.6208 0.63278,-0.1324365 1.335861,-0.1986551 2.109336,-0.1986551 0.80467,0 1.496056,0.067875 2.07414,0.2036222 0.578087,0.1357509 1.054669,0.3410257 1.42966,0.6158329 0.538979,-0.278117 1.117167,-0.483396 1.734348,-0.6158329 0.617176,-0.135747 1.300645,-0.2036222 2.050642,-0.2036222 0.874955,0 1.628843,0.072842 2.261733,0.2185231 0.632776,0.1456801 1.105366,0.3542694 1.417859,0.6257624 0.273491,0.2450104 0.410183,0.6307304 0.410183,1.157146 v 2.6470845 c 0,0.284749 -0.152394,0.498303 -0.456991,0.640699 -0.304702,0.142352 -0.707072,0.21355 -1.207058,0.21355 -0.484305,0 -0.882785,-0.0712 -1.195261,-0.21355 -0.3047,-0.145703 -0.456993,-0.359257 -0.456993,-0.640699 v -2.279567 c 0,-0.2913608 -0.0313,-0.5247631 -0.0938,-0.7002454 -0.0547,-0.1754775 -0.210878,-0.3228106 -0.46867,-0.4420079 -0.257796,-0.1191892 -0.648481,-0.1787879 -1.17187,-0.1787879 -0.42189,0 -0.824179,0.052972 -1.206962,0.158924 -0.374992,0.10595 -0.667977,0.2483202 -0.878875,0.4271082 -0.234396,0.2284521 -0.351587,0.632364 -0.351587,1.211782 z m 19.52283,0.233429 h -6.257629 c 0.007,0.307931 0.152387,0.579416 0.433598,0.814495 0.289074,0.235081 0.66798,0.412229 1.13666,0.531402 0.476586,0.119172 0.999974,0.178796 1.570361,0.178796 0.382785,0 0.730373,-0.01824 1.042869,-0.05463 0.320285,-0.03977 0.628876,-0.09934 0.925774,-0.178802 0.296889,-0.08277 0.570283,-0.170494 0.820258,-0.263223 0.250012,-0.09272 0.574202,-0.218511 0.972689,-0.377432 0.163996,-0.05958 0.398392,-0.08942 0.703075,-0.08942 0.328096,0 0.59379,0.03812 0.796878,0.114256 0.203096,0.07616 0.304678,0.183761 0.304678,0.32281 0,0.122519 -0.113247,0.266527 -0.339872,0.43206 -0.226494,0.162229 -0.570284,0.319501 -1.03118,0.471815 -0.453183,0.149007 -1.027361,0.273139 -1.722651,0.372477 -0.687477,0.09934 -1.480447,0.149006 -2.378818,0.149006 -2.054643,0 -3.652216,-0.248344 -4.792864,-0.74495 -1.140567,-0.496654 -1.710851,-1.170448 -1.710851,-2.021349 0,-0.400616 0.140591,-0.771435 0.421888,-1.1124609 0.281184,-0.3443358 0.691379,-0.639007 1.23036,-0.8840127 0.539069,-0.2450102 1.20317,-0.4320745 1.992144,-0.5612015 0.789076,-0.132437 1.664044,-0.1986553 2.624927,-0.1986553 1.24996,0 2.320228,0.1125693 3.210903,0.337712 0.898374,0.2218327 1.570252,0.5098835 2.015545,0.8641529 0.445287,0.3542658 0.667978,0.7151591 0.667978,1.0826515 0,0.341029 -0.230492,0.562889 -0.69138,0.665532 -0.460982,0.0993 -1.109365,0.148965 -1.94534,0.148964 z m -6.257629,-0.769787 h 5.800641 C 76.490007,9.6355737 76.193116,9.2895847 75.67753,9.0611286 75.169738,8.8293662 74.497867,8.7134828 73.661991,8.7134828 c -0.796877,0 -1.453177,0.1175363 -1.968741,0.3526125 -0.507789,0.2317666 -0.816377,0.5761022 -0.925784,1.0330037 z"
     fill="#ffffff"
     id="path832"
     style="fill:#d45500;fill-opacity:1;stroke-width:0.650991" />
</svg>
